<svg width="127" height="42" viewBox="0 0 127 42" fill="none" xmlns="http://www.w3.org/2000/svg">
    <path d="M35.3908 -2.86102e-06H42.2308V42H30.8308V20.58L28.1908 29.52C26.5108 35.1 25.8508 36.54 21.5308 36.54H20.7508C16.3708 36.54 15.7708 35.1 14.0908 29.52L11.4508 20.58V42H0.0507829V-2.86102e-06H6.83078C13.9708 -2.86102e-06 15.7708 2.82 17.4508 8.22L21.1108 19.92L24.7708 8.22C26.4508 2.82 28.3108 -2.86102e-06 35.3908 -2.86102e-06ZM75.4253 -2.86102e-06H86.7053V42H75.4253V35.04H61.5653L58.7453 42H46.6253L59.2853 11.4C63.1253 2.16 65.7053 -2.86102e-06 75.4253 -2.86102e-06ZM75.4253 25.5V9.6C72.7853 9.96 70.8053 12.42 68.6453 17.7L65.4653 25.5H75.4253ZM107.432 9.54C105.992 9.54 105.692 10.02 105.692 11.34V16.2H123.032V25.8H105.692V30.66C105.692 32.04 105.992 32.46 107.432 32.46H126.032V42H101.192C95.972 42 94.292 39.54 94.292 34.68V7.38C94.292 2.46 95.972 -2.86102e-06 101.192 -2.86102e-06H126.032V9.54H107.432Z" fill="#D42126"/>
</svg>
