<svg width="213" height="72" viewBox="0 0 213 72" fill="none" xmlns="http://www.w3.org/2000/svg">
    <path d="M37.5225 45.831C42.0121 45.831 45.6715 42.1825 45.6715 37.6819C45.6715 36.8954 45.5513 36.1308 45.3438 35.4098L58.8563 24.1476L46.1849 30.8001L68.9934 7.20508L41.3021 30.4614C40.1769 29.8716 38.8989 29.5329 37.5334 29.5329C33.0438 29.5329 29.3844 33.1814 29.3844 37.6819C29.3844 38.5449 29.5155 39.3642 29.7667 40.1398L19.4548 48.7913L31.0011 42.532C31.0885 42.6522 31.1759 42.7723 31.2633 42.8816L6.0625 68.1479L33.8849 44.9571C34.9773 45.5032 36.2117 45.831 37.5225 45.831ZM44.1968 37.6819C44.1968 41.3632 41.2037 44.3563 37.5225 44.3563C36.6814 44.3563 35.8839 44.1924 35.1411 43.9084L44.0876 36.4476C44.164 36.8408 44.2077 37.2559 44.2077 37.671L44.1968 37.6819ZM30.8482 37.6819C30.8482 34.0007 33.8412 31.0076 37.5225 31.0076C38.4182 31.0076 39.2703 31.1824 40.0458 31.5101L31.0011 39.102C30.9028 38.6432 30.8482 38.1735 30.8482 37.6819Z" fill="white"/>
    <path d="M39.0648 15.177C39.0648 14.3249 38.3766 13.6367 37.5246 13.6367C36.6726 13.6367 35.9844 14.3249 35.9844 15.177C35.9844 16.029 36.6726 16.7172 37.5246 16.7172C38.3766 16.7172 39.0648 16.029 39.0648 15.177ZM36.5961 15.177C36.5961 14.6635 37.0112 14.2484 37.5246 14.2484C38.038 14.2484 38.4531 14.6635 38.4531 15.177C38.4531 15.6904 38.038 16.1055 37.5246 16.1055C37.0112 16.1055 36.5961 15.6904 36.5961 15.177Z" fill="white"/>
    <path d="M35.9844 60.173C35.9844 61.0251 36.6726 61.7133 37.5246 61.7133C38.3766 61.7133 39.0648 61.0251 39.0648 60.173C39.0648 59.321 38.3766 58.6328 37.5246 58.6328C36.6726 58.6328 35.9844 59.321 35.9844 60.173ZM38.4531 60.173C38.4531 60.6865 38.038 61.1015 37.5246 61.1015C37.0112 61.1015 36.5961 60.6865 36.5961 60.173C36.5961 59.6596 37.0112 59.2445 37.5246 59.2445C38.038 59.2445 38.4531 59.6596 38.4531 60.173Z" fill="white"/>
    <path d="M61.5648 37.6809C61.5648 36.8288 60.8766 36.1406 60.0246 36.1406C59.1726 36.1406 58.4844 36.8288 58.4844 37.6809C58.4844 38.5329 59.1726 39.2211 60.0246 39.2211C60.8766 39.2211 61.5648 38.5329 61.5648 37.6809ZM59.0852 37.6809C59.0852 37.1674 59.5003 36.7523 60.0137 36.7523C60.5271 36.7523 60.9422 37.1674 60.9422 37.6809C60.9422 38.1943 60.5271 38.6094 60.0137 38.6094C59.5003 38.6094 59.0852 38.1943 59.0852 37.6809Z" fill="white"/>
    <path d="M13.4805 37.6809C13.4805 38.5329 14.1687 39.2211 15.0207 39.2211C15.8727 39.2211 16.5609 38.5329 16.5609 37.6809C16.5609 36.8288 15.8727 36.1406 15.0207 36.1406C14.1687 36.1406 13.4805 36.8288 13.4805 37.6809ZM15.9601 37.6809C15.9601 38.1943 15.545 38.6094 15.0316 38.6094C14.5182 38.6094 14.1031 38.1943 14.1031 37.6809C14.1031 37.1674 14.5182 36.7523 15.0316 36.7523C15.545 36.7523 15.9601 37.1674 15.9601 37.6809Z" fill="white"/>
    <path d="M51.6243 4.98754C51.2529 5.35894 51.2529 5.95974 51.6243 6.33114C51.9957 6.70255 52.5965 6.70255 52.9679 6.33114C53.3393 5.95974 53.3393 5.35894 52.9679 4.98754C52.5965 4.61613 51.9957 4.61613 51.6243 4.98754Z" fill="white"/>
    <path d="M22.5479 13.3643C22.9193 12.9929 22.9193 12.3921 22.5479 12.0207C22.1765 11.6493 21.5757 11.6493 21.2043 12.0207C20.8329 12.3921 20.8329 12.9929 21.2043 13.3643C21.5757 13.7357 22.1765 13.7357 22.5479 13.3643Z" fill="white"/>
    <path d="M61.4328 52.2864C61.0614 52.6578 61.0614 53.2586 61.4328 53.63C61.8043 54.0014 62.405 54.0014 62.7765 53.63C63.1479 53.2586 63.1479 52.6578 62.7765 52.2864C62.405 51.915 61.8043 51.915 61.4328 52.2864Z" fill="white"/>
    <path d="M74.6946 51.9583C74.3997 51.6633 73.9737 51.6196 73.6023 51.7835L70.7403 48.9106L67.627 48.7795L65.5734 46.7259L66.3053 45.994L64.8415 44.5302L67.5833 41.7884L69.069 43.2522L69.8008 42.5203L73.8972 46.6166L74.3341 46.1906L70.2269 42.0833L70.9587 41.3514L69.495 39.8877L71.6688 37.7139L69.495 35.5182L70.9587 34.0545L69.058 32.1429L67.5724 33.6285L64.8306 30.8757L66.2944 29.412L65.5625 28.6801L69.7462 24.5073L69.3093 24.0703L65.1365 28.2541L64.4046 27.5222L62.9408 28.9859L59.4343 25.5013L58.9756 25.8946L70.8058 37.7248L37.5216 71.009L22.6655 56.1529L22.1848 56.5462L24.1292 58.4906L22.6655 59.9544L23.3864 60.6753L18.6784 65.3834C18.3288 65.2195 17.8919 65.2742 17.6188 65.5691C17.2364 65.9405 17.2364 66.5522 17.6188 66.9127C17.9902 67.2841 18.591 67.2841 18.9624 66.9127C19.2573 66.6068 19.301 66.1699 19.1262 65.8094L20.3606 64.5641L24.0091 64.8918L27.2862 61.6257L28.7936 63.1331L27.3299 64.5969L29.2306 66.4976L30.7162 65.0338L33.458 67.7757L31.9942 69.2394L33.895 71.1511L35.3587 69.6873L37.5544 71.8611L39.7282 69.6873L41.2138 71.1511L43.1145 69.2394L41.6507 67.7757L44.3925 65.0338L45.8563 66.4976L46.3588 65.9951L48.7401 68.3765L51.5693 68.1471L54.2347 70.8124L54.6716 70.3864L51.7987 67.5135L48.9695 67.7429L46.7739 65.5691L47.757 64.5969L46.2932 63.1331L49.0351 60.3913L50.4988 61.8551L51.2307 61.1232L54.7044 64.5969C54.5296 64.9465 54.5843 65.3834 54.8792 65.6783C55.2615 66.0606 55.8623 66.0606 56.2228 65.6783C56.6051 65.3069 56.6051 64.7061 56.2228 64.3347C55.9279 64.0398 55.4909 63.9961 55.1304 64.1599L51.6567 60.6862L52.3886 59.9544L50.9249 58.4906L53.6667 55.7488L55.1523 57.2125L57.053 55.3009L55.5892 53.8371L58.3311 51.0953L59.7948 52.5591L60.5267 51.8272L60.9636 51.4012L61.6955 50.6693L60.2318 49.1837L62.9736 46.4528L64.4374 47.9165L65.1692 47.1847L67.3867 49.4022L70.5 49.5442L73.209 52.2314C73.0342 52.5809 73.0888 53.0288 73.3838 53.3237C73.7661 53.6951 74.3669 53.6951 74.7274 53.3237C75.1097 52.9523 75.1097 52.3406 74.7274 51.9801L74.6946 51.9583ZM23.7688 64.2255L20.9177 63.9633L23.8234 61.0576L24.5771 61.8114L26.0409 60.3258L26.8383 61.1341L23.7688 64.2036V64.2255Z" fill="white"/>
    <path d="M5.25426 42.5092L5.98614 43.2411L7.4499 41.7773L10.1917 44.5192L8.72796 45.9829L10.6396 47.8945L12.1034 46.4089L14.8452 49.1508L13.3814 50.6364L15.2821 52.5371L16.7677 51.0733L18.9852 53.3017H18.9962L19.4222 52.8757L4.24928 37.7028L37.5335 4.4186L52.4333 19.3184L52.914 18.9251L50.9149 16.9261L52.3787 15.4624L50.478 13.5617L49.0142 15.0254L46.2724 12.2836L47.7362 10.8198L47.0043 10.077L49.2982 7.78306L49.4293 4.66984L52.3022 1.80786C52.6518 1.98264 53.0997 1.92801 53.3946 1.62215C53.766 1.25075 53.766 0.649955 53.3946 0.278552C53.0123 -0.0928507 52.4115 -0.0928507 52.051 0.278552C51.7561 0.584413 51.7124 1.01043 51.8762 1.37091L48.8285 4.40767L48.6974 7.53183L46.5673 9.65101L45.8355 8.91912L44.3717 10.3829L41.6299 7.64106L43.0936 6.1773L41.1929 4.26567L39.7073 5.75127L37.5335 3.55563L35.3379 5.75127L33.8741 4.26567L31.9734 6.1773L33.4372 7.64106L30.6953 10.3829L29.2097 8.91912L28.4778 9.65101L25.6705 6.84363L25.2445 7.26966L28.0518 10.0879L27.3199 10.8198L28.7837 12.2836L26.0419 15.0254L24.5781 13.5617L22.6665 15.4624L24.1302 16.9261L21.3884 19.668L19.9247 18.2042L19.1928 18.9361L13.9385 13.6818C14.1133 13.3323 14.0587 12.8953 13.7637 12.6004C13.3814 12.2181 12.7806 12.2181 12.4201 12.6004C12.0378 12.9718 12.0378 13.5726 12.4201 13.944C12.7151 14.2389 13.152 14.2826 13.5125 14.1188L15.304 15.9102L14.9763 19.5587L18.2424 22.8249L16.7568 24.3214L15.2712 22.8576L13.3705 24.7693L14.8343 26.233L12.0924 28.9749L10.6287 27.5111L8.71704 29.4118L10.1808 30.8756L7.43898 33.6174L5.97521 32.1536L5.24333 32.8855L1.07051 28.7127L0.633569 29.1387L4.81731 33.3225L4.08543 34.0543L5.54919 35.5181L3.35355 37.7138L5.54919 39.8875L4.08543 41.3513L4.81731 42.0832L2.43596 44.4645L2.66536 47.3047L0 49.97L0.426021 50.3961L3.29893 47.5341L3.06953 44.6939L5.24333 42.5201L5.25426 42.5092ZM15.6098 19.2966L15.872 16.4455L18.7777 19.3512L18.0458 20.0831L19.5096 21.5468L18.6903 22.3661L15.6208 19.2966H15.6098Z" fill="white"/>
    <path d="M5.8234 46.8655C6.34827 46.8655 6.77375 46.4401 6.77375 45.9152C6.77375 45.3903 6.34827 44.9648 5.8234 44.9648C5.29853 44.9648 4.87305 45.3903 4.87305 45.9152C4.87305 46.4401 5.29853 46.8655 5.8234 46.8655Z" fill="white"/>
    <path d="M24.0742 54.9403L37.5212 68.3763L68.2274 37.681L57.566 27.0195L55.6762 28.5925L64.7647 37.681L37.5212 64.9244L25.9531 53.3563L24.0742 54.9403Z" fill="white"/>
    <path d="M51.0223 20.4762L37.5207 6.97461L6.81445 37.6809L17.607 48.4625L18.5573 47.7306L19.5186 46.9222L10.2772 37.6809L37.5207 10.4374L49.1325 22.0492L51.0223 20.4762Z" fill="white"/>
    <path d="M46.4567 24.3096L47.4507 23.4685C46.9155 23.0643 46.3475 22.7148 45.7576 22.3871L45.408 23.0971C44.5997 22.6929 43.7476 22.3652 42.8628 22.103L43.1359 21.1855C42.2293 20.8578 41.2789 20.6065 40.3067 20.4426L40.1756 21.5459C39.5421 21.4586 38.8757 21.4258 38.2203 21.4258C37.9581 21.4258 37.7069 21.4258 37.4447 21.4476L37.401 20.1914H37.2918C36.3196 20.1914 35.3692 20.2679 34.4407 20.4208L34.7466 21.8081C33.8399 22.0047 32.9551 22.2778 32.1249 22.6164L31.5351 21.1636C30.5847 21.4913 29.6671 21.9064 28.7932 22.398L29.689 23.8508C28.9025 24.3315 28.1706 24.8776 27.4933 25.4675L26.2808 24.1021C25.4834 24.7356 24.7515 25.4457 24.0851 26.2212L25.5926 27.4447C25.0246 28.1547 24.5112 28.8975 24.0633 29.6949L22.2609 28.69C21.7366 29.5748 21.2778 30.5142 20.9173 31.4755L20.9938 31.4973L22.9272 32.1855C22.6105 33.0266 22.3811 33.9115 22.2172 34.8291L20.2073 34.4904L20.0871 34.4686C19.8905 35.4735 19.7922 36.5004 19.7812 37.549H21.955V37.691C21.955 38.5758 22.0315 39.4388 22.1626 40.2909L20.2073 40.6185L20.0216 40.6404C20.2073 41.6891 20.4694 42.6831 20.8299 43.6553L20.9938 43.6116L22.8399 42.9671C22.9382 43.273 23.0474 43.5789 23.1785 43.8738L25.1447 42.2243C25.1447 42.2243 25.1338 42.1916 25.1229 42.1588C24.9044 41.416 24.7296 40.6513 24.6204 39.8648C24.5112 39.1548 24.4566 38.4338 24.4566 37.7019V37.56C24.4675 36.7735 24.533 36.0088 24.6532 35.2551C24.7733 34.4795 24.97 33.7258 25.1994 33.0048C25.4397 32.262 25.7455 31.541 26.106 30.8529C26.4556 30.1537 26.8597 29.4983 27.3295 28.8538C27.7992 28.2203 28.3126 27.6195 28.8588 27.0514C29.4268 26.4834 30.0385 25.9591 30.683 25.5003C31.3275 25.0196 32.0266 24.6046 32.7476 24.2441C33.4795 23.8727 34.2441 23.5668 35.0415 23.3156C35.839 23.0752 36.6582 22.8895 37.4884 22.7803C38.1548 22.6929 38.832 22.6492 39.5202 22.6492C39.6841 22.6492 39.8479 22.6492 40.0118 22.6602C40.8966 22.682 41.7596 22.7803 42.5897 22.966C43.4636 23.1408 44.2938 23.392 45.0912 23.7197C45.561 23.8945 46.0088 24.1021 46.4458 24.3315L46.4567 24.3096Z" fill="white"/>
    <path d="M30.5737 49.7953C30.5082 49.7516 30.4536 49.7079 30.399 49.6642L27.4277 52.133C27.821 52.417 28.2361 52.6682 28.6621 52.9085L29.5578 51.4448C30.3334 51.9363 31.1636 52.3624 32.0266 52.701L31.4258 54.1866C32.3652 54.5252 33.3483 54.7765 34.3642 54.9403L34.6701 53.5421C35.5549 53.7496 36.4834 53.8698 37.4228 53.9135L37.3791 55.1916C38.395 55.1916 39.3782 55.0933 40.3394 54.9185L40.2084 53.8152C41.1478 53.706 42.0544 53.5093 42.9393 53.2362L43.2233 54.1429C44.1409 53.8152 45.0366 53.411 45.8777 52.9195L45.5282 52.1985C46.3693 51.7834 47.1558 51.2918 47.8986 50.7457L48.2918 51.2809C49.0456 50.6801 49.7447 50.0247 50.3892 49.2819L50.1161 48.9323C50.3455 48.6702 50.6295 48.3206 50.4984 47.9492C49.7447 48.7903 49.7993 48.7248 49.7993 48.7248C49.1329 49.3365 48.412 49.9045 47.6364 50.3852C46.8936 50.8767 46.0853 51.2918 45.2332 51.6305C44.4249 51.9582 43.5728 52.2313 42.688 52.417C41.8469 52.6027 40.9621 52.7119 40.0663 52.7338C39.8916 52.7447 39.7277 52.7447 39.542 52.7447C38.8429 52.7447 38.1766 52.701 37.4993 52.6136C36.6473 52.4934 35.8061 52.3077 34.9978 52.0456C34.1894 51.7834 33.4139 51.4666 32.682 51.0952C31.9392 50.7238 31.2401 50.2869 30.5737 49.7953Z" fill="white"/>
    <path d="M31.9638 28.9862L31.7891 29.3794C32.2697 28.9534 32.4117 28.8769 32.9688 28.5383C33.5041 28.1997 34.0721 27.9157 34.6838 27.6863C35.2518 27.4569 35.8417 27.2712 36.4753 27.151C37.0652 27.0199 37.6878 26.9435 38.3105 26.9325C38.4306 26.9216 38.5508 26.9216 38.66 26.9216C39.1516 26.9216 39.6431 26.9544 40.1129 27.0199C40.7027 27.1073 41.2926 27.2275 41.8606 27.4132C42.0791 27.4896 42.2866 27.5552 42.4942 27.6426L43.5319 26.7687C43.0622 26.583 42.5816 26.441 42.0791 26.3317L42.2976 25.3486C41.6422 25.2285 40.954 25.1738 40.2658 25.1738H40.1784L40.1456 26.0805C39.9599 26.0586 39.7742 26.0586 39.5994 26.0586C39.1297 26.0586 38.66 26.0805 38.2012 26.146L38.1029 25.3595C37.4038 25.4797 36.7375 25.6545 36.082 25.8948L36.2787 26.5393C35.6451 26.725 35.0334 26.9653 34.4544 27.2493L34.1923 26.7468C33.5915 27.0636 33.0125 27.4569 32.4882 27.8829L32.7613 28.2652C32.226 28.6585 32.1277 28.7459 31.9529 28.9862H31.9638Z" fill="white"/>
    <path d="M49.3197 39.2206C49.2432 39.7887 49.1231 40.3239 48.9702 40.8483C48.7954 41.3944 48.5878 41.9078 48.3366 42.4103C48.1072 42.9128 47.8123 43.4044 47.4845 43.8632C47.1568 44.3438 46.7854 44.7698 46.3813 45.1849C45.988 45.6 45.5511 45.9824 45.0814 46.3319C44.6007 46.6705 44.0982 46.9873 43.5739 47.2604C43.0496 47.5335 42.4925 47.752 41.9135 47.9377C41.3346 48.1234 40.7556 48.2545 40.122 48.3419C39.6414 48.4074 39.1717 48.4402 38.6692 48.4402C38.5381 48.4402 38.407 48.4402 38.2869 48.4292C37.6533 48.4183 37.0307 48.3419 36.4189 48.2108C35.7963 48.0797 35.1846 47.8831 34.5947 47.6427C34.2014 47.4789 33.8191 47.3041 33.4696 47.0966L33.1855 47.3369C33.5679 47.61 33.972 47.8394 34.3871 48.0469L34.1468 48.5603C34.7476 48.9099 35.3812 49.1939 36.0475 49.4451L36.2442 48.8006C36.8777 48.9863 37.5331 49.1283 38.1995 49.2048L38.1012 50.0022C38.7894 50.1224 39.4994 50.1879 40.2203 50.1879L40.1876 49.2813C40.8648 49.2594 41.5203 49.172 42.1538 49.0191L42.3723 50.0132C43.0933 49.893 43.7924 49.7182 44.4806 49.4779L44.0436 48.4183C44.6663 48.178 45.2671 47.8721 45.8132 47.5226L46.4468 48.5603C47.0913 48.2108 47.6921 47.7847 48.2601 47.326L47.3862 46.321C47.8778 45.895 48.3257 45.4034 48.7408 44.89L49.7785 45.7311L49.8113 45.7639C50.3028 45.1959 50.7289 44.5841 51.1003 43.9506L51.0129 43.9069L49.8113 43.2514C50.1281 42.6725 50.3902 42.0717 50.6087 41.4381L51.9305 41.9079L52.0397 41.9406C52.3019 41.2524 52.4766 40.5424 52.6186 39.7996L52.4876 39.7778L51.0893 39.5374C51.1877 38.9366 51.2313 38.314 51.2313 37.6913V37.5821H52.7825C52.7825 36.8393 52.706 36.0965 52.5749 35.3755H52.4766L51.0456 35.6377C50.9364 34.9932 50.7616 34.3487 50.5432 33.7479L51.9305 33.2564L51.9742 33.2345C51.8321 32.8522 51.6574 32.4808 51.4717 32.1094L48.8718 34.2613C48.8718 34.2613 48.8828 34.2941 48.8937 34.3269C49.0575 34.8403 49.1996 35.3865 49.2869 35.9436C49.3743 36.4679 49.418 37.025 49.418 37.5821V37.6913C49.418 38.2157 49.3962 38.7291 49.3088 39.2316L49.3197 39.2206Z" fill="white"/>
    <path d="M99.6111 44.3666C99.0867 44.0717 98.4859 43.9297 97.7977 43.9297H95.0996V50.8662H97.7977C98.4859 50.8662 99.0867 50.7242 99.6111 50.4292C100.135 50.1343 100.54 49.7301 100.835 49.2058C101.119 48.6815 101.271 48.0807 101.271 47.3925C101.271 46.7043 101.129 46.1035 100.835 45.5792C100.54 45.0548 100.135 44.6506 99.6111 44.3557V44.3666ZM100.026 48.7579C99.8077 49.1512 99.5127 49.457 99.1195 49.6755C98.7372 49.894 98.2675 50.0032 97.7431 50.0032H96.0063V44.7927H97.7431C98.2784 44.7927 98.7372 44.9019 99.1195 45.1204C99.5018 45.3388 99.8077 45.6447 100.026 46.027C100.245 46.4203 100.343 46.8682 100.343 47.3925C100.343 47.9168 100.234 48.3647 100.026 48.7579Z" fill="white"/>
    <path d="M105.794 50.7028C106.122 50.5608 106.395 50.3423 106.614 50.0692L106.133 49.4575C105.958 49.6651 105.751 49.8289 105.51 49.9382C105.27 50.0474 105.019 50.0911 104.724 50.0911C104.374 50.0911 104.069 50.0146 103.795 49.8617C103.522 49.7088 103.315 49.5012 103.162 49.2172C103.053 49.0206 102.998 48.7912 102.965 48.5509H106.898C106.898 48.5509 106.898 48.4526 106.909 48.3979C106.909 48.3433 106.909 48.2996 106.909 48.2559C106.909 47.7097 106.81 47.24 106.603 46.8359C106.395 46.4317 106.111 46.1149 105.751 45.8855C105.39 45.6561 104.975 45.5469 104.505 45.5469C104.036 45.5469 103.621 45.6561 103.249 45.8855C102.878 46.1149 102.594 46.4317 102.375 46.8359C102.168 47.24 102.059 47.6988 102.059 48.2232C102.059 48.7475 102.168 49.2063 102.386 49.6105C102.605 50.0146 102.911 50.3314 103.304 50.5608C103.697 50.7902 104.156 50.9104 104.669 50.9104C105.074 50.9104 105.434 50.8339 105.762 50.6919L105.794 50.7028ZM103.708 46.5846C103.948 46.4317 104.221 46.3661 104.527 46.3661C104.833 46.3661 105.117 46.4426 105.347 46.5846C105.587 46.7375 105.762 46.9451 105.904 47.2073C106.002 47.4039 106.057 47.6333 106.078 47.8736H102.987C103.009 47.6333 103.064 47.4148 103.162 47.2182C103.293 46.9451 103.479 46.7375 103.719 46.5955L103.708 46.5846Z" fill="white"/>
    <path d="M112.85 49.6421C113.068 49.2379 113.167 48.7682 113.167 48.2329C113.167 47.6977 113.057 47.228 112.85 46.8347C112.631 46.4415 112.347 46.1247 111.976 45.8953C111.605 45.6659 111.189 45.5566 110.709 45.5566C110.294 45.5566 109.922 45.655 109.584 45.8516C109.343 45.9936 109.147 46.2121 108.972 46.4742V45.6113H108.131V52.7881H109.005V50.0353C109.169 50.2756 109.365 50.4832 109.595 50.6252C109.922 50.8218 110.294 50.9311 110.698 50.9311C111.179 50.9311 111.594 50.8218 111.965 50.5924C112.336 50.363 112.62 50.0572 112.839 49.653L112.85 49.6421ZM111.484 49.8605C111.233 50.0135 110.96 50.0899 110.643 50.0899C110.327 50.0899 110.064 50.0135 109.813 49.8605C109.562 49.7076 109.365 49.4891 109.223 49.2051C109.081 48.9211 109.005 48.6043 109.005 48.2329C109.005 47.8615 109.081 47.5338 109.223 47.2607C109.365 46.9876 109.562 46.7692 109.813 46.6162C110.064 46.4633 110.337 46.3868 110.643 46.3868C110.949 46.3868 111.233 46.4633 111.484 46.6162C111.736 46.7692 111.932 46.9767 112.074 47.2607C112.216 47.5338 112.293 47.8615 112.293 48.2329C112.293 48.6043 112.216 48.932 112.074 49.2051C111.932 49.4891 111.736 49.7076 111.484 49.8605Z" fill="white"/>
    <path d="M117.406 50.1325V50.8644H118.236V47.6965C118.236 46.9756 118.061 46.4403 117.69 46.0908C117.329 45.7412 116.816 45.5664 116.15 45.5664C115.767 45.5664 115.396 45.621 115.046 45.7412C114.697 45.8613 114.391 46.0252 114.14 46.2437L114.511 46.9537C114.697 46.7789 114.937 46.6478 115.21 46.5386C115.483 46.4403 115.767 46.3857 116.051 46.3857C116.488 46.3857 116.805 46.4949 117.024 46.7134C117.242 46.9319 117.351 47.2486 117.351 47.6528V47.8385H115.964C115.483 47.8385 115.101 47.9041 114.817 48.0461C114.533 48.1881 114.325 48.3738 114.205 48.6032C114.085 48.8326 114.02 49.0947 114.02 49.3788C114.02 49.6628 114.096 49.9468 114.238 50.1762C114.38 50.4165 114.598 50.5913 114.872 50.7223C115.145 50.8534 115.461 50.919 115.822 50.919C116.27 50.919 116.641 50.8316 116.925 50.6459C117.144 50.5148 117.286 50.3291 117.406 50.1325ZM115.964 50.1871C115.625 50.1871 115.363 50.1106 115.177 49.9577C114.992 49.8048 114.893 49.5972 114.893 49.3351C114.893 49.1057 114.97 48.92 115.123 48.7561C115.276 48.5923 115.571 48.5158 116.008 48.5158H117.362V49.2477C117.253 49.5535 117.078 49.7829 116.827 49.9358C116.576 50.0888 116.292 50.1762 115.964 50.1762V50.1871Z" fill="white"/>
    <path d="M122.484 45.557C122.025 45.557 121.632 45.6553 121.315 45.841C121.042 46.0049 120.856 46.2452 120.714 46.5292V45.6007H119.873V50.855H120.758V48.2333C120.758 47.6543 120.9 47.2174 121.173 46.9115C121.446 46.6057 121.817 46.4528 122.287 46.4528H122.385C122.385 46.4528 122.451 46.4528 122.495 46.4528V45.5352L122.484 45.557Z" fill="white"/>
    <path d="M122.934 45.6107V46.3972H123.753V49.281C123.753 49.8053 123.884 50.2204 124.157 50.5044C124.43 50.7885 124.802 50.9305 125.293 50.9305C125.49 50.9305 125.686 50.8977 125.872 50.8431C126.058 50.7885 126.222 50.6901 126.353 50.57L126.08 49.8818C125.894 50.0457 125.664 50.133 125.391 50.133C125.151 50.133 124.954 50.0566 124.823 49.9036C124.692 49.7507 124.627 49.5323 124.627 49.2482V46.4081H126.025V45.6216H124.627V44.4746H123.753V45.6216H122.934V45.6107Z" fill="white"/>
    <path d="M129.949 50.6459C130.167 50.5148 130.309 50.3291 130.429 50.1325V50.8644H131.259V47.6965C131.259 46.9756 131.085 46.4403 130.713 46.0908C130.353 45.7412 129.839 45.5664 129.173 45.5664C128.791 45.5664 128.419 45.621 128.07 45.7412C127.72 45.8613 127.414 46.0252 127.163 46.2437L127.535 46.9537C127.72 46.7789 127.961 46.6478 128.234 46.5386C128.507 46.4403 128.791 46.3857 129.075 46.3857C129.512 46.3857 129.828 46.4949 130.047 46.7134C130.265 46.9319 130.375 47.2486 130.375 47.6528V47.8385H128.987C128.507 47.8385 128.124 47.9041 127.84 48.0461C127.556 48.1881 127.349 48.3738 127.229 48.6032C127.109 48.8326 127.043 49.0947 127.043 49.3788C127.043 49.6628 127.119 49.9468 127.261 50.1762C127.403 50.4165 127.622 50.5913 127.895 50.7223C128.168 50.8534 128.485 50.919 128.845 50.919C129.293 50.919 129.665 50.8316 129.949 50.6459ZM127.917 49.3351C127.917 49.1057 127.993 48.92 128.146 48.7561C128.299 48.5923 128.594 48.5158 129.031 48.5158H130.386V49.2477C130.276 49.5535 130.102 49.7829 129.85 49.9358C129.599 50.0888 129.315 50.1762 128.987 50.1762C128.66 50.1762 128.387 50.0997 128.201 49.9468C128.015 49.7939 127.917 49.5863 127.917 49.3241V49.3351Z" fill="white"/>
    <path d="M140.969 50.8655V47.8397C140.969 47.3263 140.881 46.9002 140.717 46.5616C140.554 46.223 140.313 45.9717 140.018 45.8079C139.723 45.644 139.374 45.5566 138.981 45.5566C138.489 45.5566 138.063 45.6768 137.703 45.928C137.44 46.1028 137.266 46.3213 137.113 46.5725C136.992 46.3104 136.84 46.0919 136.632 45.928C136.293 45.6768 135.9 45.5566 135.43 45.5566C135.004 45.5566 134.644 45.6549 134.327 45.8406C134.087 45.9827 133.901 46.1902 133.759 46.4305V45.6113H132.918V50.8655H133.792V48.1565C133.792 47.7741 133.857 47.4573 133.978 47.1952C134.098 46.933 134.272 46.7473 134.491 46.6053C134.709 46.4742 134.961 46.4087 135.256 46.4087C135.66 46.4087 135.966 46.5398 136.184 46.791C136.403 47.0532 136.512 47.4355 136.512 47.938V50.8546H137.397V48.1455C137.397 47.7632 137.451 47.4464 137.571 47.1843C137.692 46.9221 137.855 46.7364 138.085 46.5944C138.303 46.4633 138.565 46.3978 138.849 46.3978C139.243 46.3978 139.56 46.5288 139.778 46.7801C139.996 47.0422 140.106 47.4246 140.106 47.9271V50.8437H140.991L140.969 50.8655Z" fill="white"/>
    <path d="M145.819 45.8953C145.459 45.6659 145.044 45.5566 144.574 45.5566C144.104 45.5566 143.689 45.6659 143.318 45.8953C142.946 46.1247 142.662 46.4415 142.444 46.8456C142.236 47.2498 142.127 47.7086 142.127 48.2329C142.127 48.7573 142.236 49.216 142.455 49.6202C142.673 50.0244 142.979 50.3412 143.372 50.5706C143.765 50.8 144.224 50.9201 144.738 50.9201C145.142 50.9201 145.502 50.8437 145.83 50.7017C146.158 50.5597 146.431 50.3412 146.649 50.0681L146.169 49.4564C145.994 49.6639 145.786 49.8278 145.546 49.937C145.306 50.0462 145.054 50.0899 144.76 50.0899C144.41 50.0899 144.104 50.0135 143.831 49.8605C143.558 49.7076 143.35 49.5001 143.197 49.2161C143.088 49.0194 143.034 48.79 143.001 48.5497H146.933C146.933 48.5497 146.933 48.4514 146.944 48.3968C146.944 48.3422 146.944 48.2985 146.944 48.2548C146.944 47.7086 146.846 47.2389 146.638 46.8347C146.431 46.4305 146.147 46.1137 145.786 45.8844L145.819 45.8953ZM143.755 46.5835C143.995 46.4305 144.268 46.365 144.574 46.365C144.88 46.365 145.164 46.4415 145.393 46.5835C145.633 46.7364 145.808 46.9439 145.95 47.2061C146.049 47.4027 146.103 47.6321 146.125 47.8724H143.034C143.055 47.6321 143.11 47.4137 143.208 47.217C143.339 46.9439 143.525 46.7364 143.765 46.5944L143.755 46.5835Z" fill="white"/>
    <path d="M149.794 46.6162C150.023 46.4851 150.297 46.4196 150.613 46.4196C151.028 46.4196 151.356 46.5507 151.575 46.8019C151.804 47.0641 151.924 47.4464 151.924 47.9489V50.8655H152.798V47.8397C152.798 47.3263 152.711 46.9002 152.547 46.5616C152.372 46.223 152.143 45.9717 151.837 45.8079C151.531 45.644 151.181 45.5566 150.788 45.5566C150.351 45.5566 149.969 45.6549 149.63 45.8406C149.379 45.9936 149.182 46.2011 149.04 46.4305V45.6003H148.199V50.8546H149.073V48.1455C149.073 47.7632 149.139 47.4464 149.259 47.1843C149.39 46.9221 149.565 46.7364 149.794 46.5944V46.6162Z" fill="white"/>
    <path d="M156.205 50.1233C155.965 50.1233 155.768 50.0468 155.637 49.8939C155.506 49.7409 155.44 49.5225 155.44 49.2385V46.3983H156.839V45.6118H155.44V44.4648H154.567V45.6118H153.736V46.3983H154.567V49.2822C154.567 49.8065 154.698 50.2216 154.971 50.5056C155.244 50.7896 155.615 50.9316 156.107 50.9316C156.303 50.9316 156.5 50.8988 156.686 50.8442C156.871 50.7896 157.035 50.6913 157.166 50.5711L156.893 49.883C156.708 50.0468 156.478 50.1342 156.205 50.1342V50.1233Z" fill="white"/>
    <path d="M161.877 48.3321C161.877 48.7035 161.811 49.0203 161.691 49.2825C161.571 49.5446 161.396 49.7412 161.167 49.8723C160.937 50.0034 160.675 50.0799 160.369 50.0799C159.954 50.0799 159.627 49.9488 159.397 49.6976C159.168 49.4354 159.059 49.0531 159.059 48.5396V45.623H158.174V48.6489C158.174 49.1623 158.261 49.5883 158.436 49.9379C158.611 50.2765 158.851 50.5277 159.168 50.6916C159.485 50.8555 159.845 50.9429 160.26 50.9429C160.675 50.9429 161.014 50.8445 161.331 50.6588C161.571 50.5168 161.757 50.2983 161.91 50.058V50.8882H162.74V45.634H161.866V48.3539L161.877 48.3321Z" fill="white"/>
    <path d="M165.307 43.5156H164.434V50.8672H165.307V43.5156Z" fill="white"/>
    <path d="M173.195 50.0042V50.8672H174.036V43.5156H173.151V46.4431C172.987 46.2028 172.801 45.9953 172.561 45.8642C172.233 45.6676 171.862 45.5693 171.447 45.5693C170.977 45.5693 170.562 45.6785 170.191 45.9079C169.819 46.1373 169.524 46.4432 169.317 46.8473C169.098 47.2515 169 47.7103 169 48.2455C169 48.7808 169.109 49.2505 169.317 49.6547C169.535 50.0589 169.819 50.3756 170.191 50.5941C170.562 50.8235 170.977 50.9327 171.447 50.9327C171.873 50.9327 172.244 50.8344 172.572 50.6269C172.812 50.474 173.009 50.2555 173.173 50.0042H173.195ZM171.534 50.0916C171.217 50.0916 170.944 50.0152 170.704 49.8622C170.464 49.7093 170.267 49.4908 170.114 49.2068C169.972 48.9228 169.896 48.606 169.896 48.2346C169.896 47.8632 169.972 47.5355 170.114 47.2624C170.256 46.9893 170.453 46.7709 170.704 46.6179C170.944 46.465 171.228 46.3885 171.534 46.3885C171.84 46.3885 172.113 46.465 172.364 46.6179C172.616 46.7709 172.812 46.9784 172.954 47.2624C173.096 47.5355 173.173 47.8632 173.173 48.2346C173.173 48.606 173.096 48.9337 172.954 49.2068C172.812 49.4908 172.616 49.7093 172.364 49.8622C172.113 50.0152 171.84 50.0916 171.534 50.0916Z" fill="white"/>
    <path d="M179.782 50.0692L179.301 49.4575C179.126 49.6651 178.919 49.8289 178.678 49.9382C178.438 50.0474 178.187 50.0911 177.892 50.0911C177.542 50.0911 177.237 50.0146 176.963 49.8617C176.69 49.7088 176.483 49.5012 176.33 49.2172C176.221 49.0206 176.166 48.7912 176.133 48.5509H180.066C180.066 48.5509 180.077 48.4526 180.077 48.3979C180.077 48.3433 180.077 48.2996 180.077 48.2559C180.077 47.7097 179.978 47.24 179.771 46.8359C179.563 46.4317 179.279 46.1149 178.919 45.8855C178.558 45.6561 178.143 45.5469 177.673 45.5469C177.204 45.5469 176.789 45.6561 176.417 45.8855C176.046 46.1149 175.762 46.4317 175.543 46.8359C175.336 47.24 175.227 47.6988 175.227 48.2232C175.227 48.7475 175.336 49.2063 175.554 49.6105C175.773 50.0146 176.079 50.3314 176.472 50.5608C176.865 50.7902 177.324 50.9104 177.837 50.9104C178.241 50.9104 178.602 50.8339 178.93 50.6919C179.257 50.5499 179.53 50.3314 179.749 50.0583L179.782 50.0692ZM176.876 46.5846C177.116 46.4317 177.389 46.3661 177.695 46.3661C178.001 46.3661 178.274 46.4426 178.515 46.5846C178.755 46.7375 178.941 46.9451 179.072 47.2073C179.17 47.4039 179.225 47.6333 179.246 47.8736H176.155C176.177 47.6333 176.232 47.4148 176.33 47.2182C176.461 46.9451 176.647 46.7375 176.887 46.5955L176.876 46.5846Z" fill="white"/>
    <path d="M189.959 43.9297L187.326 48.8016L184.65 43.9297H183.896V50.8662H184.781V45.8413L187.097 50.0251H187.512L189.839 45.8085V50.8662H190.724L190.713 43.9297H189.959Z" fill="white"/>
    <path d="M194.288 45.5566C193.906 45.5566 193.535 45.6113 193.185 45.7314C192.835 45.8516 192.53 46.0154 192.278 46.2339L192.65 46.9439C192.835 46.7692 193.076 46.6381 193.349 46.5288C193.622 46.4305 193.906 46.3759 194.19 46.3759C194.627 46.3759 194.944 46.4852 195.162 46.7036C195.381 46.9221 195.49 47.2389 195.49 47.6431V47.8288H194.103C193.622 47.8288 193.24 47.8943 192.956 48.0363C192.672 48.1783 192.464 48.364 192.344 48.5934C192.224 48.8228 192.158 49.085 192.158 49.369C192.158 49.653 192.235 49.937 192.377 50.1664C192.519 50.4067 192.737 50.5815 193.01 50.7126C193.283 50.8437 193.6 50.9092 193.961 50.9092C194.408 50.9092 194.78 50.8218 195.064 50.6361C195.282 50.505 195.424 50.3193 195.545 50.1227V50.8546H196.375V47.6867C196.375 46.9658 196.2 46.4305 195.829 46.081C195.468 45.7314 194.955 45.5566 194.288 45.5566ZM194.955 49.9479C194.703 50.1118 194.419 50.1883 194.092 50.1883C193.764 50.1883 193.491 50.1118 193.305 49.9589C193.119 49.8059 193.021 49.5984 193.021 49.3362C193.021 49.1068 193.098 48.9211 193.251 48.7573C193.403 48.5934 193.698 48.5169 194.135 48.5169H195.49V49.2488C195.381 49.5547 195.206 49.7841 194.955 49.937V49.9479Z" fill="white"/>
    <path d="M200.885 48.2329C200.699 48.1346 200.502 48.0582 200.284 48.0035C200.065 47.9489 199.847 47.9052 199.628 47.8615C199.41 47.8288 199.213 47.7851 199.028 47.7304C198.842 47.6758 198.7 47.5994 198.591 47.512C198.481 47.4137 198.416 47.2826 198.416 47.0969C198.416 46.8893 198.514 46.7146 198.7 46.5725C198.886 46.4415 199.181 46.365 199.563 46.365C199.803 46.365 200.043 46.3978 200.273 46.4524C200.513 46.507 200.743 46.6162 200.961 46.7801L201.332 46.0264C201.125 45.8734 200.852 45.7533 200.535 45.6768C200.207 45.5894 199.891 45.5566 199.574 45.5566C199.159 45.5566 198.798 45.6222 198.492 45.7533C198.186 45.8844 197.957 46.0591 197.793 46.2995C197.629 46.5398 197.542 46.8129 197.542 47.1296C197.542 47.4464 197.597 47.6758 197.706 47.8615C197.815 48.0472 197.968 48.1892 198.143 48.2875C198.328 48.3859 198.525 48.4732 198.744 48.5279C198.962 48.5825 199.181 48.6262 199.399 48.6699C199.617 48.7026 199.814 48.7463 200 48.79C200.175 48.8337 200.327 48.9102 200.437 48.9976C200.546 49.085 200.601 49.216 200.601 49.3799C200.601 49.6093 200.513 49.7841 200.327 49.9042C200.153 50.0353 199.858 50.0899 199.443 50.0899C199.126 50.0899 198.809 50.0353 198.503 49.937C198.197 49.8278 197.946 49.6967 197.739 49.5547L197.367 50.3084C197.575 50.4832 197.859 50.6252 198.219 50.7454C198.58 50.8655 198.962 50.9201 199.366 50.9201C199.803 50.9201 200.175 50.8546 200.48 50.7235C200.797 50.5924 201.038 50.4177 201.201 50.1883C201.376 49.9589 201.453 49.6858 201.453 49.369C201.453 49.074 201.398 48.8337 201.289 48.6589C201.18 48.4842 201.027 48.3422 200.852 48.2439L200.885 48.2329Z" fill="white"/>
    <path d="M199.442 51.7949C199.3 51.7949 199.191 51.8386 199.104 51.926C199.016 52.0134 198.973 52.1226 198.973 52.2537C198.973 52.3848 199.016 52.494 199.093 52.5814C199.137 52.6251 199.202 52.6579 199.268 52.6797L199.049 53.4771H199.508L199.781 52.7671C199.836 52.6688 199.857 52.5705 199.879 52.494C199.89 52.4066 199.901 52.3302 199.901 52.2646C199.901 52.1335 199.857 52.0352 199.781 51.9369C199.705 51.8495 199.584 51.8058 199.442 51.8058V51.7949Z" fill="white"/>
    <path d="M203.475 45.6133H202.59V50.8675H203.475V45.6133Z" fill="white"/>
    <path d="M203.027 43.3625C202.853 43.3625 202.711 43.4171 202.601 43.5373C202.492 43.6574 202.438 43.7994 202.438 43.9851C202.438 44.1708 202.492 44.3019 202.601 44.4221C202.711 44.5422 202.853 44.5969 203.027 44.5969C203.202 44.5969 203.344 44.5313 203.453 44.4112C203.563 44.291 203.617 44.1381 203.617 43.9633C203.617 43.7885 203.563 43.6465 203.442 43.5263C203.333 43.4062 203.191 43.3516 203.016 43.3516L203.027 43.3625Z" fill="white"/>
    <path d="M208.792 45.8079C208.486 45.644 208.136 45.5566 207.743 45.5566C207.306 45.5566 206.913 45.6549 206.585 45.8406C206.334 45.9936 206.137 46.2011 205.995 46.4305V45.6003H205.154V50.8546H206.028V48.1455C206.028 47.7632 206.094 47.4464 206.214 47.1843C206.345 46.9221 206.52 46.7364 206.749 46.5944C206.979 46.4633 207.252 46.3978 207.568 46.3978C207.984 46.3978 208.311 46.5288 208.53 46.7801C208.759 47.0422 208.879 47.4246 208.879 47.9271V50.8437H209.753V47.8178C209.753 47.3044 209.666 46.8784 209.502 46.5398C209.327 46.2011 209.098 45.9499 208.792 45.786V45.8079Z" fill="white"/>
    <path d="M211.831 44.5969C212.006 44.5969 212.148 44.5313 212.257 44.4112C212.367 44.291 212.421 44.1381 212.421 43.9633C212.421 43.7885 212.367 43.6465 212.246 43.5263C212.137 43.4062 211.995 43.3516 211.82 43.3516C211.646 43.3516 211.504 43.4062 211.394 43.5263C211.285 43.6465 211.23 43.7885 211.23 43.9742C211.23 44.1599 211.285 44.291 211.394 44.4112C211.504 44.5313 211.646 44.5859 211.82 44.5859L211.831 44.5969Z" fill="white"/>
    <path d="M212.266 45.6133H211.381V50.8675H212.266V45.6133Z" fill="white"/>
    <path d="M97.8533 60.1294C97.6676 60.0311 97.471 59.9546 97.2525 59.9C97.0341 59.8454 96.8156 59.8017 96.5971 59.758C96.3787 59.7252 96.182 59.6815 95.9963 59.6269C95.8106 59.5723 95.6686 59.4958 95.5594 59.4085C95.4501 59.3101 95.3846 59.1791 95.3846 58.9934C95.3846 58.7858 95.4829 58.611 95.6686 58.469C95.8543 58.3379 96.1493 58.2615 96.5316 58.2615C96.7719 58.2615 97.0122 58.2943 97.2416 58.3489C97.4819 58.4035 97.7113 58.5127 97.9298 58.6766L98.3012 57.9228C98.0937 57.7699 97.8206 57.6498 97.5038 57.5733C97.1761 57.4859 96.8593 57.4531 96.5425 57.4531C96.1274 57.4531 95.7669 57.5187 95.4611 57.6498C95.1552 57.7808 94.9258 57.9665 94.762 58.1959C94.5981 58.4363 94.5107 58.7093 94.5107 59.0261C94.5107 59.3429 94.5653 59.5723 94.6746 59.758C94.7838 59.9437 94.9367 60.0857 95.1115 60.184C95.2972 60.2823 95.4938 60.3697 95.7123 60.4243C95.9308 60.479 96.1493 60.5227 96.3677 60.5664C96.5862 60.5991 96.7828 60.6428 96.9685 60.6865C97.1433 60.7302 97.2962 60.8067 97.4055 60.8941C97.5147 60.9815 97.5693 61.1125 97.5693 61.2764C97.5693 61.5058 97.4819 61.6806 97.2962 61.8007C97.1215 61.9318 96.8265 61.9864 96.4114 61.9864C96.0946 61.9864 95.7779 61.9318 95.472 61.8335C95.1661 61.7242 94.9149 61.5932 94.7073 61.4512L94.3359 62.2049C94.5435 62.3797 94.8275 62.5217 95.188 62.6418C95.5485 62.762 95.9308 62.8166 96.335 62.8166C96.7719 62.8166 97.1433 62.7511 97.4492 62.62C97.755 62.4889 98.0063 62.3141 98.1701 62.0847C98.3449 61.8553 98.4214 61.5823 98.4214 61.2655C98.4214 60.9705 98.3667 60.7302 98.2575 60.5554C98.1483 60.3806 97.9953 60.2387 97.8206 60.1403L97.8533 60.1294Z" fill="white"/>
    <path d="M96.4092 63.6895C96.2672 63.6895 96.1579 63.7331 96.0705 63.8205C95.9831 63.9079 95.9395 64.0172 95.9395 64.1482C95.9395 64.2793 95.9831 64.3886 96.0596 64.476C96.1033 64.5196 96.1688 64.5524 96.2344 64.5743L96.0159 65.3717H96.4747L96.7478 64.6617C96.8024 64.5633 96.8243 64.465 96.8461 64.3886C96.857 64.3012 96.868 64.2247 96.868 64.1592C96.868 64.0281 96.8243 63.9298 96.7478 63.8314C96.6713 63.7441 96.5512 63.7004 96.4092 63.7004V63.6895Z" fill="white"/>
    <path d="M100.005 55.257C99.8303 55.257 99.6883 55.3117 99.5791 55.4318C99.4698 55.552 99.4043 55.694 99.4043 55.8797C99.4043 56.0654 99.4589 56.1965 99.5791 56.3166C99.6883 56.4368 99.8303 56.4914 100.005 56.4914C100.18 56.4914 100.322 56.4258 100.431 56.3057C100.54 56.1855 100.595 56.0326 100.595 55.8578C100.595 55.6831 100.54 55.541 100.431 55.4209C100.322 55.3007 100.18 55.2461 100.005 55.2461V55.257Z" fill="white"/>
    <path d="M100.432 57.5078H99.5586V62.7621H100.432V57.5078Z" fill="white"/>
    <path d="M106.646 55.8242L103.74 62.7607H104.68L105.379 61.0239H108.787L109.486 62.7607H110.447L107.531 55.8242H106.624H106.646ZM105.706 60.2264L107.094 56.8183L108.481 60.2264H105.717H105.706Z" fill="white"/>
    <path d="M112.547 58.5119C112.798 58.359 113.082 58.2825 113.399 58.2825C113.661 58.2825 113.901 58.3481 114.142 58.4682C114.371 58.5884 114.568 58.785 114.72 59.0362L115.387 58.5665C115.201 58.1951 114.928 57.922 114.589 57.7254C114.24 57.5397 113.847 57.4414 113.41 57.4414C112.918 57.4414 112.47 57.5506 112.088 57.78C111.695 58.0094 111.4 58.3262 111.181 58.7304C110.963 59.1346 110.854 59.5934 110.854 60.1177C110.854 60.642 110.963 61.1008 111.181 61.505C111.4 61.9092 111.706 62.2259 112.088 62.4553C112.47 62.6847 112.918 62.8049 113.41 62.8049C113.847 62.8049 114.24 62.7066 114.589 62.51C114.939 62.3133 115.201 62.0402 115.387 61.6688L114.72 61.21C114.557 61.4722 114.371 61.6579 114.142 61.7781C113.912 61.8982 113.661 61.9638 113.399 61.9638C113.082 61.9638 112.798 61.8873 112.547 61.7344C112.295 61.5814 112.099 61.363 111.957 61.0899C111.815 60.8168 111.738 60.4891 111.738 60.1068C111.738 59.7244 111.815 59.4077 111.957 59.1346C112.099 58.8615 112.306 58.643 112.547 58.4901V58.5119Z" fill="white"/>
    <path d="M118.005 63.6895C117.863 63.6895 117.754 63.7331 117.666 63.8205C117.579 63.9079 117.535 64.0172 117.535 64.1482C117.535 64.2793 117.579 64.3886 117.655 64.476C117.699 64.5196 117.765 64.5524 117.83 64.5743L117.612 65.3717H118.07L118.344 64.6617C118.387 64.5633 118.42 64.465 118.442 64.3886C118.453 64.3012 118.464 64.2247 118.464 64.1592C118.464 64.0281 118.42 63.9298 118.344 63.8314C118.256 63.7441 118.147 63.7004 117.994 63.7004L118.005 63.6895Z" fill="white"/>
    <path d="M118.29 62.0198C118.05 62.0198 117.853 61.9433 117.722 61.7904C117.591 61.6374 117.525 61.419 117.525 61.1349V58.2948H118.923V57.5083H117.525V56.3613H116.651V57.5083H115.832V58.2948H116.651V61.1786C116.651 61.703 116.782 62.1181 117.055 62.4021C117.329 62.6861 117.7 62.8281 118.192 62.8281C118.388 62.8281 118.585 62.7953 118.77 62.7407C118.956 62.6861 119.12 62.5878 119.251 62.4676L118.978 61.7794C118.792 61.9433 118.563 62.0307 118.29 62.0307V62.0198Z" fill="white"/>
    <path d="M120.747 55.257C120.573 55.257 120.431 55.3117 120.321 55.4318C120.212 55.552 120.146 55.694 120.146 55.8797C120.146 56.0654 120.201 56.1965 120.321 56.3166C120.431 56.4368 120.573 56.4914 120.747 56.4914C120.922 56.4914 121.064 56.4258 121.173 56.3057C121.283 56.1855 121.337 56.0326 121.337 55.8578C121.337 55.6831 121.283 55.541 121.173 55.4209C121.064 55.3007 120.922 55.2461 120.747 55.2461V55.257Z" fill="white"/>
    <path d="M121.186 57.5078H120.312V62.7621H121.186V57.5078Z" fill="white"/>
    <path d="M126.245 57.8035C125.863 57.5741 125.437 57.4648 124.945 57.4648C124.454 57.4648 124.028 57.585 123.645 57.8144C123.263 58.0438 122.968 58.3606 122.75 58.7648C122.531 59.1689 122.422 59.6277 122.422 60.1521C122.422 60.6764 122.531 61.1243 122.75 61.5394C122.968 61.9435 123.274 62.2603 123.656 62.5006C124.039 62.73 124.476 62.8502 124.956 62.8502C125.437 62.8502 125.874 62.73 126.256 62.5006C126.638 62.2712 126.933 61.9545 127.152 61.5503C127.37 61.1461 127.48 60.6873 127.48 60.163C127.48 59.6386 127.37 59.1799 127.152 58.7757C126.933 58.3715 126.638 58.0547 126.256 57.8253L126.245 57.8035ZM126.376 61.1133C126.234 61.3974 126.038 61.6158 125.797 61.7687C125.546 61.9217 125.273 61.9982 124.956 61.9982C124.639 61.9982 124.366 61.9217 124.126 61.7687C123.886 61.6158 123.689 61.3974 123.536 61.1133C123.394 60.8293 123.318 60.5125 123.318 60.1411C123.318 59.7697 123.394 59.442 123.536 59.1689C123.678 58.8959 123.875 58.6774 124.126 58.5244C124.366 58.3715 124.65 58.295 124.956 58.295C125.262 58.295 125.546 58.3715 125.797 58.5244C126.049 58.6774 126.234 58.8849 126.376 59.1689C126.518 59.442 126.584 59.7697 126.584 60.1411C126.584 60.5125 126.518 60.8403 126.376 61.1133Z" fill="white"/>
    <path d="M132.327 57.7044C132.021 57.5405 131.672 57.4531 131.278 57.4531C130.841 57.4531 130.459 57.5514 130.12 57.7371C129.869 57.8901 129.673 58.0976 129.531 58.327V57.4968H128.689V62.7511H129.563V60.042C129.563 59.6597 129.629 59.3429 129.749 59.0807C129.88 58.8186 130.055 58.6329 130.284 58.4909C130.514 58.3598 130.787 58.2942 131.104 58.2942C131.519 58.2942 131.846 58.4253 132.065 58.6766C132.294 58.9387 132.414 59.3211 132.414 59.8235V62.7401H133.288V59.7143C133.288 59.2009 133.201 58.7749 133.037 58.4363C132.862 58.0976 132.633 57.8464 132.327 57.6825V57.7044Z" fill="white"/>
    <path d="M136.695 57.4531C136.312 57.4531 135.941 57.5077 135.591 57.6279C135.242 57.7481 134.936 57.9119 134.685 58.1304L135.056 58.8404C135.242 58.6657 135.482 58.5346 135.755 58.4253C136.028 58.327 136.312 58.2724 136.596 58.2724C137.033 58.2724 137.35 58.3816 137.568 58.6001C137.787 58.8186 137.896 59.1354 137.896 59.5395V59.7252H136.509C136.028 59.7252 135.646 59.7908 135.362 59.9328C135.078 60.0748 134.87 60.2605 134.75 60.4899C134.63 60.7193 134.564 60.9815 134.564 61.2655C134.564 61.5495 134.641 61.8335 134.783 62.0629C134.925 62.3032 135.143 62.478 135.416 62.6091C135.69 62.7402 136.006 62.8057 136.367 62.8057C136.815 62.8057 137.186 62.7183 137.47 62.5326C137.689 62.4015 137.831 62.2158 137.951 62.0192V62.7511H138.781V59.5832C138.781 58.8623 138.606 58.327 138.235 57.9775C137.874 57.6279 137.361 57.4531 136.695 57.4531ZM137.361 61.8444C137.11 62.0083 136.826 62.0847 136.498 62.0847C136.17 62.0847 135.897 62.0083 135.711 61.8553C135.526 61.7024 135.427 61.4949 135.427 61.2327C135.427 61.0033 135.504 60.8176 135.657 60.6538C135.81 60.4899 136.105 60.4134 136.542 60.4134H137.896V61.1453C137.787 61.4512 137.612 61.6806 137.361 61.8335V61.8444Z" fill="white"/>
    <path d="M136.762 56.7967C137.177 56.7967 137.527 56.6766 137.811 56.4363C138.095 56.1959 138.237 55.8682 138.248 55.4531H137.647C137.647 55.6934 137.549 55.8901 137.374 56.0321C137.199 56.1741 136.992 56.2506 136.751 56.2506C136.511 56.2506 136.303 56.185 136.14 56.0321C135.965 55.8901 135.877 55.6934 135.866 55.4531H135.266C135.277 55.8682 135.429 56.1959 135.703 56.4363C135.976 56.6766 136.336 56.7967 136.751 56.7967H136.762Z" fill="white"/>
    <path d="M141.251 58.4257V57.4972H140.41V62.7514H141.295V60.1298C141.295 59.5508 141.437 59.1139 141.71 58.808C141.983 58.5022 142.355 58.3492 142.824 58.3492H142.923C142.923 58.3492 142.988 58.3492 143.032 58.3492V57.4316C142.573 57.4316 142.18 57.53 141.863 57.7157C141.59 57.8795 141.404 58.1198 141.262 58.4038L141.251 58.4257Z" fill="white"/>
    <path d="M144.607 55.257C144.433 55.257 144.291 55.3117 144.181 55.4318C144.072 55.552 144.018 55.694 144.018 55.8797C144.018 56.0654 144.072 56.1965 144.181 56.3166C144.291 56.4368 144.433 56.4914 144.607 56.4914C144.782 56.4914 144.924 56.4258 145.033 56.3057C145.143 56.1855 145.197 56.0326 145.197 55.8578C145.197 55.6831 145.143 55.541 145.023 55.4209C144.913 55.3007 144.771 55.2461 144.597 55.2461L144.607 55.257Z" fill="white"/>
    <path d="M145.043 57.5078H144.158V62.7621H145.043V57.5078Z" fill="white"/>
    <path d="M150.23 59.6584H153.442V58.8064H150.23V56.6763H153.835V55.8242H149.312V62.7607H153.966V61.8978H150.23V59.6584Z" fill="white"/>
    <path d="M156.194 55.3984H155.32V62.75H156.194V55.3984Z" fill="white"/>
    <path d="M161.112 57.7918C160.752 57.5624 160.337 57.4531 159.867 57.4531C159.397 57.4531 158.982 57.5624 158.611 57.7918C158.239 58.0211 157.955 58.3379 157.737 58.7421C157.529 59.1463 157.42 59.6051 157.42 60.1294C157.42 60.6537 157.529 61.1125 157.748 61.5167C157.966 61.9209 158.272 62.2377 158.665 62.4671C159.058 62.6965 159.517 62.8166 160.031 62.8166C160.435 62.8166 160.795 62.7402 161.123 62.5982C161.451 62.4561 161.724 62.2377 161.942 61.9646L161.462 61.3529C161.287 61.5604 161.079 61.7242 160.839 61.8335C160.599 61.9427 160.347 61.9864 160.053 61.9864C159.703 61.9864 159.397 61.91 159.124 61.757C158.851 61.6041 158.643 61.3966 158.49 61.1125C158.381 60.9159 158.327 60.6865 158.294 60.4462H162.226C162.226 60.4462 162.226 60.3479 162.237 60.2933C162.237 60.2387 162.237 60.195 162.237 60.1513C162.237 59.6051 162.139 59.1354 161.931 58.7312C161.724 58.327 161.44 58.0102 161.079 57.7808L161.112 57.7918ZM159.048 58.4799C159.288 58.327 159.561 58.2615 159.867 58.2615C160.173 58.2615 160.457 58.3379 160.686 58.4799C160.926 58.6329 161.101 58.8404 161.243 59.1026C161.341 59.2992 161.396 59.5286 161.418 59.7689H158.327C158.348 59.5286 158.403 59.3101 158.501 59.1135C158.632 58.8404 158.818 58.6329 159.058 58.4909L159.048 58.4799Z" fill="white"/>
    <path d="M164.736 58.5119C164.987 58.359 165.271 58.2825 165.588 58.2825C165.85 58.2825 166.091 58.3481 166.331 58.4682C166.56 58.5884 166.757 58.785 166.91 59.0362L167.576 58.5665C167.391 58.1951 167.117 57.922 166.779 57.7254C166.429 57.5397 166.036 57.4414 165.599 57.4414C165.108 57.4414 164.66 57.5506 164.277 57.78C163.884 58.0094 163.589 58.3262 163.371 58.7304C163.152 59.1346 163.043 59.5934 163.043 60.1177C163.043 60.642 163.152 61.1008 163.371 61.505C163.589 61.9092 163.895 62.2259 164.277 62.4553C164.66 62.6847 165.108 62.8049 165.599 62.8049C166.036 62.8049 166.429 62.7066 166.779 62.51C167.128 62.3133 167.391 62.0402 167.576 61.6688L166.91 61.21C166.746 61.4722 166.56 61.6579 166.331 61.7781C166.102 61.8982 165.85 61.9638 165.588 61.9638C165.271 61.9638 164.987 61.8873 164.736 61.7344C164.485 61.5814 164.288 61.363 164.146 61.0899C164.004 60.8168 163.928 60.4891 163.928 60.1068C163.928 59.7244 164.004 59.4077 164.146 59.1346C164.288 58.8615 164.496 58.643 164.736 58.4901V58.5119Z" fill="white"/>
    <path d="M170.486 62.0198C170.245 62.0198 170.049 61.9433 169.917 61.7904C169.786 61.6374 169.721 61.419 169.721 61.1349V58.2948H171.108V57.5083H169.721V56.3613H168.836V57.5083H168.006V58.2948H168.836V61.1786C168.836 61.703 168.967 62.1181 169.24 62.4021C169.513 62.6861 169.885 62.8281 170.376 62.8281C170.573 62.8281 170.77 62.7953 170.955 62.7407C171.141 62.6861 171.305 62.5878 171.436 62.4676L171.163 61.7794C170.977 61.9433 170.748 62.0307 170.475 62.0307L170.486 62.0198Z" fill="white"/>
    <path d="M173.357 58.4245V57.5069H172.516V62.7612H173.39V60.1395C173.39 59.5606 173.532 59.1236 173.805 58.8178C174.078 58.5119 174.449 58.359 174.919 58.359H175.017C175.017 58.359 175.083 58.359 175.126 58.359V57.4414C174.657 57.4414 174.274 57.5397 173.958 57.7254C173.684 57.8893 173.499 58.1296 173.368 58.4136L173.357 58.4245Z" fill="white"/>
    <path d="M177.147 57.5078H176.262V62.7621H177.147V57.5078Z" fill="white"/>
    <path d="M176.711 55.257C176.536 55.257 176.394 55.3117 176.285 55.4318C176.176 55.552 176.121 55.694 176.121 55.8797C176.121 56.0654 176.176 56.1965 176.285 56.3166C176.394 56.4368 176.536 56.4914 176.711 56.4914C176.886 56.4914 177.028 56.4258 177.137 56.3057C177.246 56.1855 177.301 56.0326 177.301 55.8578C177.301 55.6831 177.246 55.541 177.126 55.4209C177.017 55.3007 176.875 55.2461 176.7 55.2461L176.711 55.257Z" fill="white"/>
    <path d="M180.076 58.5119C180.327 58.359 180.611 58.2825 180.928 58.2825C181.19 58.2825 181.43 58.3481 181.671 58.4682C181.9 58.5884 182.097 58.785 182.25 59.0362L182.916 58.5665C182.73 58.1951 182.457 57.922 182.119 57.7254C181.769 57.5397 181.376 57.4414 180.939 57.4414C180.447 57.4414 179.999 57.5506 179.617 57.78C179.224 58.0094 178.929 58.3262 178.711 58.7304C178.492 59.1346 178.383 59.5934 178.383 60.1177C178.383 60.642 178.492 61.1008 178.711 61.505C178.929 61.9092 179.235 62.2259 179.617 62.4553C179.999 62.6847 180.447 62.8049 180.939 62.8049C181.376 62.8049 181.769 62.7066 182.119 62.51C182.468 62.3133 182.73 62.0402 182.916 61.6688L182.25 61.21C182.086 61.4722 181.9 61.6579 181.671 61.7781C181.441 61.8982 181.19 61.9638 180.928 61.9638C180.611 61.9638 180.327 61.8873 180.076 61.7344C179.825 61.5814 179.628 61.363 179.486 61.0899C179.344 60.8168 179.268 60.4891 179.268 60.1068C179.268 59.7244 179.344 59.4077 179.486 59.1346C179.628 58.8615 179.836 58.643 180.076 58.4901V58.5119Z" fill="white"/>
    <path d="M187.286 57.7918C186.925 57.5624 186.51 57.4531 186.041 57.4531C185.571 57.4531 185.156 57.5624 184.784 57.7918C184.413 58.0211 184.129 58.3379 183.911 58.7421C183.703 59.1463 183.594 59.6051 183.594 60.1294C183.594 60.6537 183.703 61.1125 183.921 61.5167C184.14 61.9209 184.446 62.2377 184.839 62.4671C185.232 62.6965 185.691 62.8166 186.204 62.8166C186.609 62.8166 186.969 62.7402 187.297 62.5982C187.625 62.4561 187.898 62.2377 188.116 61.9646L187.635 61.3529C187.461 61.5604 187.253 61.7242 187.013 61.8335C186.773 61.9427 186.521 61.9864 186.226 61.9864C185.877 61.9864 185.571 61.91 185.298 61.757C185.025 61.6041 184.817 61.3966 184.664 61.1125C184.555 60.9159 184.5 60.6865 184.468 60.4462H188.4C188.4 60.4462 188.4 60.3479 188.411 60.2933C188.411 60.2387 188.411 60.195 188.411 60.1513C188.411 59.6051 188.313 59.1354 188.105 58.7312C187.898 58.327 187.614 58.0102 187.253 57.7808L187.286 57.7918ZM185.232 58.4799C185.473 58.327 185.746 58.2615 186.052 58.2615C186.357 58.2615 186.641 58.3379 186.871 58.4799C187.111 58.6329 187.286 58.8404 187.428 59.1026C187.526 59.2992 187.581 59.5286 187.603 59.7689H184.511C184.533 59.5286 184.588 59.3101 184.686 59.1135C184.817 58.8404 185.003 58.6329 185.243 58.4909L185.232 58.4799Z" fill="white"/>
    <path d="M100.639 23.393L107.116 33.9452H110.295L116.805 23.0216L116.871 36.4358H123.447L123.403 11.1367H117.515L108.831 25.7525L99.9503 11.1367H94.0625V36.4358H100.639V23.393Z" fill="white"/>
    <path d="M143.678 11.1367H136.633L125.469 36.4358H132.766L134.754 31.4874H145.448L147.436 36.4358H154.875L143.678 11.1367ZM136.862 26.2441L140.106 18.1606L143.351 26.2441H136.862Z" fill="white"/>
    <path d="M177.212 30.8757H163.983V26.2441H175.224V20.9352H163.983V16.7078H176.742V11.1367H156.938V36.4358H177.212V30.8757Z" fill="white"/>
    <path d="M84.0137 3.03125V68.0595" stroke="white" stroke-width="1.2125" stroke-miterlimit="10"/>
</svg>
