<svg width="661" height="634" viewBox="0 0 661 634" fill="none" xmlns="http://www.w3.org/2000/svg">
    <path d="M330.636 403.847C370.197 403.847 402.442 371.698 402.442 332.04C402.442 325.11 401.384 318.372 399.555 312.019L518.622 212.78L406.966 271.4L607.947 63.4883L363.94 268.416C354.026 263.218 342.764 260.234 330.732 260.234C291.171 260.234 258.926 292.383 258.926 332.04C258.926 339.645 260.081 346.864 262.295 353.698L171.43 429.932L273.172 374.778C273.942 375.836 274.712 376.895 275.482 377.858L53.4209 600.496L298.583 396.146C308.208 400.959 319.085 403.847 330.636 403.847ZM389.448 332.04C389.448 364.478 363.074 390.852 330.636 390.852C323.224 390.852 316.198 389.409 309.652 386.906L388.485 321.164C389.159 324.629 389.544 328.286 389.544 331.944L389.448 332.04ZM271.824 332.04C271.824 299.602 298.198 273.229 330.636 273.229C338.529 273.229 346.037 274.769 352.871 277.656L273.172 344.554C272.305 340.511 271.824 336.372 271.824 332.04Z" fill="#EDEEEF"/>
    <path d="M344.226 133.732C344.226 126.224 338.162 120.16 330.654 120.16C323.146 120.16 317.082 126.224 317.082 133.732C317.082 141.24 323.146 147.304 330.654 147.304C338.162 147.304 344.226 141.24 344.226 133.732ZM322.472 133.732C322.472 129.208 326.13 125.55 330.654 125.55C335.178 125.55 338.836 129.208 338.836 133.732C338.836 138.256 335.178 141.914 330.654 141.914C326.13 141.914 322.472 138.256 322.472 133.732Z" fill="#EDEEEF"/>
    <path d="M317.082 530.224C317.082 537.732 323.146 543.796 330.654 543.796C338.162 543.796 344.226 537.732 344.226 530.224C344.226 522.716 338.162 516.652 330.654 516.652C323.146 516.652 317.082 522.716 317.082 530.224ZM338.836 530.224C338.836 534.748 335.178 538.406 330.654 538.406C326.13 538.406 322.472 534.748 322.472 530.224C322.472 525.7 326.13 522.043 330.654 522.043C335.178 522.043 338.836 525.7 338.836 530.224Z" fill="#EDEEEF"/>
    <path d="M542.489 332.031C542.489 324.523 536.425 318.459 528.917 318.459C521.409 318.459 515.345 324.523 515.345 332.031C515.345 339.539 521.409 345.603 528.917 345.603C536.425 345.603 542.489 339.539 542.489 332.031ZM520.639 332.031C520.639 327.507 524.296 323.849 528.82 323.849C533.344 323.849 537.002 327.507 537.002 332.031C537.002 336.555 533.344 340.213 528.82 340.213C524.296 340.213 520.639 336.555 520.639 332.031Z" fill="#EDEEEF"/>
    <path d="M118.785 332.031C118.785 339.539 124.849 345.603 132.357 345.603C139.865 345.603 145.929 339.539 145.929 332.031C145.929 324.523 139.865 318.459 132.357 318.459C124.849 318.459 118.785 324.523 118.785 332.031ZM140.635 332.031C140.635 336.555 136.977 340.213 132.453 340.213C127.929 340.213 124.272 336.555 124.272 332.031C124.272 327.507 127.929 323.849 132.453 323.849C136.977 323.849 140.635 327.507 140.635 332.031Z" fill="#EDEEEF"/>
    <path d="M454.896 43.9486C451.623 47.2213 451.623 52.5154 454.896 55.7881C458.169 59.0608 463.463 59.0608 466.735 55.7881C470.008 52.5154 470.008 47.2213 466.735 43.9486C463.463 40.676 458.169 40.676 454.896 43.9486Z" fill="#EDEEEF"/>
    <path d="M198.685 117.763C201.958 114.49 201.958 109.196 198.685 105.923C195.413 102.651 190.119 102.651 186.846 105.923C183.573 109.196 183.573 114.49 186.846 117.763C190.119 121.035 195.413 121.035 198.685 117.763Z" fill="#EDEEEF"/>
    <path d="M541.327 460.73C538.054 464.003 538.054 469.297 541.327 472.569C544.599 475.842 549.893 475.842 553.166 472.569C556.439 469.297 556.439 464.003 553.166 460.73C549.893 457.457 544.599 457.457 541.327 460.73Z" fill="#EDEEEF"/>
    <path d="M658.185 457.837C655.586 455.238 651.832 454.853 648.559 456.297L623.341 430.982L595.908 429.827L577.812 411.731L584.261 405.282L571.363 392.384L595.523 368.224L608.613 381.122L615.063 374.673L651.158 410.768L655.009 407.015L618.817 370.823L625.266 364.373L612.367 351.475L631.522 332.32L612.367 312.973L625.266 300.075L608.517 283.23L595.427 296.321L571.266 272.065L584.165 259.166L577.716 252.717L614.581 215.948L610.731 212.098L573.962 248.963L567.512 242.514L554.614 255.413L523.716 224.707L519.674 228.172L623.918 332.417L330.628 625.706L199.721 494.799L195.486 498.264L212.619 515.398L199.721 528.296L206.074 534.649L164.588 576.135C161.508 574.691 157.658 575.172 155.251 577.771C151.882 581.044 151.882 586.434 155.251 589.611C158.524 592.883 163.818 592.883 167.091 589.611C169.69 586.916 170.075 583.065 168.535 579.889L179.411 568.916L211.561 571.803L240.437 543.023L253.72 556.306L240.822 569.205L257.571 585.953L270.661 573.055L294.821 597.215L281.923 610.113L298.672 626.958L311.57 614.059L330.917 633.214L350.072 614.059L363.163 626.958L379.911 610.113L367.013 597.215L391.173 573.055L404.071 585.953L408.499 581.525L429.482 602.509L454.413 600.488L477.899 623.974L481.749 620.22L456.434 594.905L431.504 596.926L412.157 577.771L420.82 569.205L407.921 556.306L432.081 532.146L444.98 545.044L451.429 538.595L482.038 569.205C480.498 572.285 480.979 576.135 483.578 578.734C486.947 582.103 492.241 582.103 495.417 578.734C498.786 575.461 498.786 570.167 495.417 566.894C492.818 564.296 488.968 563.911 485.792 565.354L455.183 534.745L461.632 528.296L448.734 515.398L472.894 491.238L485.984 504.136L502.733 487.291L489.835 474.393L513.995 450.233L526.893 463.131L533.342 456.682L537.192 452.928L543.641 446.479L530.743 433.388L554.903 409.325L567.801 422.223L574.25 415.774L593.79 435.314L621.223 436.565L645.094 460.244C643.554 463.324 644.035 467.27 646.634 469.869C650.003 473.142 655.297 473.142 658.474 469.869C661.843 466.596 661.843 461.206 658.474 458.03L658.185 457.837ZM209.443 565.932L184.32 563.622L209.924 538.018L216.566 544.66L229.464 531.569L236.491 538.692L209.443 565.739V565.932Z" fill="#EDEEEF"/>
    <path d="M46.2988 374.577L52.7479 381.026L65.6461 368.128L89.8061 392.288L76.9079 405.186L93.7526 422.031L106.651 408.94L130.811 433.1L117.913 446.191L134.661 462.94L147.752 450.041L167.292 469.677H167.388L171.142 465.923L37.4433 332.225L330.733 38.9353L462.025 170.227L466.26 166.762L448.646 149.148L461.544 136.249L444.795 119.501L431.897 132.399L407.737 108.239L420.635 95.3408L414.186 88.7955L434.4 68.5818L435.555 41.1491L460.87 15.9303C463.95 17.4703 467.897 16.989 470.496 14.2939C473.768 11.0212 473.768 5.72719 470.496 2.45451C467.127 -0.81817 461.833 -0.81817 458.656 2.45451C456.057 5.14965 455.672 8.90361 457.116 12.08L430.261 38.839L429.106 66.368L410.336 85.0415L403.887 78.5924L390.989 91.4906L366.829 67.3305L379.727 54.4324L362.978 37.5877L349.888 50.6783L330.733 31.3311L311.386 50.6783L298.487 37.5877L281.739 54.4324L294.637 67.3305L270.477 91.4906L257.387 78.5924L250.937 85.0415L226.2 60.3039L222.446 64.0579L247.183 88.8917L240.734 95.3408L253.633 108.239L229.472 132.399L216.574 119.501L199.73 136.249L212.628 149.148L188.468 173.308L175.57 160.409L169.12 166.858L122.822 120.56C124.362 117.479 123.88 113.629 121.282 111.03C117.913 107.661 112.619 107.661 109.442 111.03C106.073 114.303 106.073 119.597 109.442 122.87C112.041 125.469 115.891 125.854 119.068 124.41L134.854 140.196L131.966 172.345L160.746 201.125L147.656 214.312L134.565 201.414L117.816 218.259L130.715 231.157L106.555 255.317L93.6563 242.419L76.8117 259.167L89.7099 272.065L65.5498 296.226L52.6516 283.327L46.2025 289.776L9.43301 253.007L5.5828 256.761L42.4486 293.627L35.9995 300.076L48.8977 312.974L29.5504 332.321L48.8977 351.476L35.9995 364.374L42.4486 370.823L21.4649 391.807L23.4863 416.833L0 440.32L3.75395 444.074L29.0691 418.855L27.0477 393.828L46.2025 374.673L46.2988 374.577ZM137.549 170.035L139.859 144.912L165.463 170.516L159.014 176.965L171.912 189.863L164.693 197.083L137.645 170.035H137.549Z" fill="#EDEEEF"/>
    <path d="M51.3146 412.965C55.9396 412.965 59.6888 409.216 59.6888 404.591C59.6888 399.966 55.9396 396.217 51.3146 396.217C46.6897 396.217 42.9404 399.966 42.9404 404.591C42.9404 409.216 46.6897 412.965 51.3146 412.965Z" fill="#EDEEEF"/>
    <path d="M212.134 484.116L330.624 602.51L601.197 332.033L507.252 238.088L490.6 251.949L570.685 332.033L330.624 572.094L228.69 470.159L212.134 484.116Z" fill="#EDEEEF"/>
    <path d="M449.592 180.431L330.62 61.459L60.0469 332.033L155.147 427.036L163.521 420.587L171.992 413.464L90.5598 332.033L330.62 91.9719L432.94 194.291L449.592 180.431Z" fill="#EDEEEF"/>
    <path d="M409.362 214.208L418.121 206.796C413.405 203.235 408.399 200.155 403.202 197.267L400.121 203.524C392.999 199.962 385.491 197.075 377.694 194.765L380.1 186.679C372.111 183.792 363.737 181.578 355.17 180.134L354.015 189.856C348.432 189.086 342.561 188.797 336.786 188.797C334.475 188.797 332.261 188.797 329.951 188.989L329.566 177.92H328.604C320.037 177.92 311.663 178.594 303.481 179.941L306.176 192.166C298.187 193.898 290.39 196.305 283.075 199.289L277.877 186.487C269.503 189.374 261.418 193.032 253.717 197.364L261.61 210.165C254.68 214.401 248.231 219.213 242.263 224.411L231.578 212.379C224.552 217.962 218.103 224.219 212.231 231.053L225.514 241.833C220.509 248.09 215.985 254.635 212.039 261.662L196.157 252.806C191.536 260.603 187.494 268.881 184.317 277.352L184.991 277.544L202.028 283.608C199.237 291.02 197.215 298.817 195.772 306.902L178.061 303.918L177.002 303.726C175.269 312.581 174.403 321.629 174.307 330.869H193.461V332.121C193.461 339.918 194.135 347.522 195.29 355.03L178.061 357.917L176.424 358.11C178.061 367.35 180.371 376.109 183.547 384.676L184.991 384.291L201.258 378.612C202.124 381.307 203.087 384.002 204.242 386.601L221.568 372.067C221.568 372.067 221.472 371.778 221.375 371.489C219.45 364.944 217.91 358.206 216.948 351.276C215.985 345.019 215.504 338.666 215.504 332.217V330.966C215.6 324.035 216.178 317.298 217.236 310.656C218.295 303.822 220.028 297.18 222.049 290.827C224.167 284.282 226.862 277.929 230.038 271.865C233.119 265.705 236.68 259.929 240.819 254.25C244.958 248.668 249.482 243.373 254.295 238.368C259.3 233.363 264.69 228.743 270.369 224.7C276.048 220.465 282.209 216.807 288.562 213.631C295.011 210.358 301.749 207.663 308.775 205.449C315.802 203.331 323.021 201.695 330.336 200.732C336.208 199.962 342.176 199.577 348.24 199.577C349.684 199.577 351.128 199.577 352.571 199.674C360.368 199.866 367.972 200.732 375.288 202.369C382.988 203.909 390.303 206.123 397.33 209.01C401.469 210.55 405.415 212.379 409.266 214.401L409.362 214.208Z" fill="#EDEEEF"/>
    <path d="M269.406 438.781C268.829 438.396 268.347 438.011 267.866 437.626L241.685 459.379C245.15 461.882 248.807 464.096 252.561 466.213L260.454 453.315C267.288 457.647 274.604 461.401 282.208 464.385L276.914 477.475C285.192 480.459 293.855 482.673 302.807 484.117L305.502 471.796C313.298 473.625 321.48 474.684 329.758 475.069L329.373 486.331C338.325 486.331 346.988 485.465 355.458 483.925L354.303 474.203C362.581 473.24 370.57 471.508 378.367 469.101L380.87 477.09C388.955 474.203 396.848 470.641 404.26 466.31L401.18 459.957C408.591 456.299 415.522 451.968 422.067 447.155L425.532 451.872C432.174 446.578 438.334 440.802 444.013 434.257L441.607 431.177C443.628 428.866 446.131 425.786 444.976 422.514C438.334 429.925 438.815 429.348 438.815 429.348C432.944 434.738 426.591 439.743 419.757 443.979C413.211 448.31 406.089 451.968 398.581 454.952C391.458 457.839 383.95 460.246 376.153 461.882C368.742 463.518 360.945 464.481 353.052 464.674C351.512 464.77 350.068 464.77 348.432 464.77C342.271 464.77 336.4 464.385 330.432 463.615C322.924 462.556 315.512 460.92 308.389 458.609C301.267 456.299 294.432 453.508 287.983 450.235C281.438 446.963 275.278 443.112 269.406 438.781Z" fill="#EDEEEF"/>
    <path d="M281.655 255.417L280.115 258.883C284.35 255.129 285.602 254.455 290.511 251.471C295.227 248.487 300.233 245.984 305.623 243.963C310.628 241.942 315.826 240.305 321.409 239.246C326.607 238.091 332.093 237.418 337.58 237.321C338.638 237.225 339.697 237.225 340.66 237.225C344.991 237.225 349.323 237.514 353.462 238.091C358.66 238.861 363.857 239.92 368.863 241.557C370.788 242.23 372.617 242.808 374.445 243.578L383.59 235.878C379.451 234.241 375.215 232.99 370.788 232.027L372.713 223.364C366.937 222.306 360.873 221.824 354.809 221.824H354.039L353.75 229.813C352.114 229.621 350.478 229.621 348.938 229.621C344.799 229.621 340.66 229.813 336.617 230.391L335.751 223.461C329.59 224.519 323.719 226.059 317.944 228.177L319.676 233.856C314.093 235.492 308.703 237.61 303.602 240.113L301.291 235.685C295.997 238.476 290.896 241.942 286.276 245.696L288.682 249.064C283.965 252.53 283.099 253.3 281.559 255.417H281.655Z" fill="#EDEEEF"/>
    <path d="M434.589 345.6C433.915 350.605 432.856 355.321 431.509 359.942C429.969 364.754 428.14 369.278 425.926 373.706C423.905 378.134 421.306 382.465 418.418 386.508C415.53 390.743 412.258 394.497 408.696 398.155C405.231 401.813 401.381 405.182 397.242 408.262C393.007 411.246 388.579 414.037 383.959 416.443C379.338 418.85 374.429 420.775 369.328 422.411C364.226 424.048 359.125 425.203 353.542 425.973C349.307 426.55 345.168 426.839 340.74 426.839C339.585 426.839 338.43 426.839 337.371 426.743C331.788 426.647 326.302 425.973 320.911 424.818C315.425 423.663 310.035 421.93 304.837 419.812C301.372 418.369 298.003 416.829 294.923 415L292.42 417.117C295.789 419.524 299.35 421.545 303.008 423.374L300.89 427.898C306.184 430.978 311.767 433.481 317.639 435.695L319.371 430.015C324.954 431.652 330.73 432.903 336.601 433.577L335.735 440.604C341.799 441.662 348.055 442.24 354.408 442.24L354.12 434.251C360.087 434.058 365.863 433.288 371.445 431.941L373.371 440.7C379.723 439.641 385.884 438.101 391.948 435.983L388.098 426.646C393.584 424.529 398.878 421.834 403.691 418.754L409.274 427.898C414.953 424.818 420.247 421.064 425.252 417.021L417.552 408.166C421.883 404.412 425.83 400.08 429.487 395.556L438.632 402.968L438.92 403.257C443.252 398.251 447.006 392.861 450.279 387.278L449.508 386.893L438.92 381.118C441.712 376.016 444.022 370.722 445.947 365.139L457.594 369.278L458.556 369.567C460.867 363.503 462.407 357.246 463.658 350.701L462.503 350.509L450.182 348.391C451.049 343.097 451.434 337.61 451.434 332.124V331.161H465.102C465.102 324.616 464.428 318.071 463.273 311.718H462.407L449.797 314.028C448.835 308.349 447.295 302.67 445.37 297.376L457.594 293.044L457.979 292.852C456.728 289.483 455.188 286.21 453.551 282.938L430.642 301.9C430.642 301.9 430.739 302.189 430.835 302.477C432.279 307.001 433.53 311.814 434.3 316.723C435.07 321.343 435.455 326.252 435.455 331.161V332.124C435.455 336.744 435.263 341.268 434.493 345.696L434.589 345.6Z" fill="#EDEEEF"/>
</svg>
