<svg width="33" height="33" viewBox="0 0 33 33" fill="none" xmlns="http://www.w3.org/2000/svg">
    <path d="M27.0644 20.0476V12.9503L17.5364 18.1169C17.2111 18.3045 16.8671 18.3983 16.5044 18.3983C16.1427 18.3983 15.796 18.3041 15.4644 18.1156L6.35111 13.1369C6.15822 13.0214 6.016 12.8845 5.92444 12.7263C5.83289 12.5681 5.78711 12.3929 5.78711 12.2009C5.78711 12.0089 5.83289 11.8338 5.92444 11.6756C6.016 11.5174 6.15822 11.3805 6.35111 11.2649L15.4631 6.29961C15.6249 6.20894 15.7916 6.14138 15.9631 6.09694C16.1338 6.0525 16.3129 6.03027 16.5004 6.03027C16.688 6.03027 16.8671 6.05338 17.0378 6.09961C17.2084 6.14583 17.3747 6.2165 17.5364 6.31161L27.8258 11.8849C28.008 11.9774 28.1489 12.1107 28.2484 12.2849C28.348 12.4592 28.3978 12.6467 28.3978 12.8476V20.0476C28.3978 20.2361 28.3338 20.3943 28.2058 20.5223C28.0778 20.6503 27.9196 20.7143 27.7311 20.7143C27.5427 20.7143 27.384 20.6503 27.2551 20.5223C27.1262 20.3943 27.0627 20.2361 27.0644 20.0476ZM15.4644 24.5529L9.61911 21.3876C9.27689 21.1938 9.00489 20.9263 8.80311 20.5849C8.60133 20.2463 8.50044 19.8796 8.50044 19.4849V15.3409L15.4644 19.1183C15.7898 19.3058 16.1338 19.3996 16.4964 19.3996C16.8582 19.3996 17.2049 19.3054 17.5364 19.1169L24.5004 15.3396V19.4876C24.5004 19.8876 24.3996 20.2565 24.1978 20.5943C23.996 20.9303 23.7244 21.1952 23.3831 21.3889L17.5364 24.5529C17.3729 24.6463 17.2049 24.7165 17.0324 24.7636C16.86 24.8107 16.6827 24.8343 16.5004 24.8343C16.3182 24.8343 16.1409 24.8107 15.9684 24.7636C15.796 24.7165 15.628 24.6463 15.4644 24.5529Z" fill="#F8F8F8"/>
</svg>
