<svg width="33" height="33" viewBox="0 0 33 33" fill="none" xmlns="http://www.w3.org/2000/svg">
    <g clip-path="url(#clip0_59_513)">
        <path d="M22.817 0.624654L23.339 2.23115C23.501 2.71995 23.7752 3.16405 24.1396 3.52791C24.504 3.89178 24.9485 4.16532 25.4375 4.32665L27.044 4.84865L27.0755 4.85765C27.1994 4.90127 27.3067 4.98227 27.3826 5.08947C27.4585 5.19667 27.4993 5.3248 27.4993 5.45615C27.4993 5.58751 27.4585 5.71563 27.3826 5.82284C27.3067 5.93004 27.1994 6.01104 27.0755 6.05465L25.469 6.57665C24.98 6.73799 24.5355 7.01153 24.1711 7.3754C23.8067 7.73926 23.5325 8.18336 23.3705 8.67215L22.8485 10.2772C22.8049 10.4011 22.7239 10.5084 22.6167 10.5843C22.5095 10.6602 22.3814 10.701 22.25 10.701C22.1186 10.701 21.9905 10.6602 21.8833 10.5843C21.7761 10.5084 21.6951 10.4011 21.6515 10.2772L21.128 8.67215C20.9672 8.18227 20.6939 7.73686 20.33 7.37165C19.9658 7.00574 19.5209 6.73036 19.031 6.56765L17.4245 6.04565C17.3006 6.00204 17.1933 5.92104 17.1174 5.81384C17.0415 5.70663 17.0007 5.57851 17.0007 5.44715C17.0007 5.31579 17.0415 5.18767 17.1174 5.08047C17.1933 4.97327 17.3006 4.89227 17.4245 4.84865L19.031 4.32665C19.5139 4.16095 19.9518 3.88546 20.3102 3.52185C20.6686 3.15823 20.9378 2.71642 21.0965 2.23115L21.6185 0.626154C21.6618 0.501727 21.7428 0.393864 21.8501 0.317535C21.9575 0.241206 22.086 0.200195 22.2178 0.200195C22.3495 0.200195 22.478 0.241206 22.5854 0.317535C22.6927 0.393864 22.7737 0.500227 22.817 0.624654ZM30.1745 12.5227L29.0255 12.1507C28.6769 12.0341 28.3601 11.838 28.1003 11.5779C27.8405 11.3179 27.6447 11.0009 27.5285 10.6522L27.1535 9.50616C27.1224 9.41755 27.0646 9.34079 26.988 9.28648C26.9115 9.23217 26.8199 9.203 26.726 9.203C26.6321 9.203 26.5405 9.23217 26.464 9.28648C26.3874 9.34079 26.3296 9.41755 26.2985 9.50616L25.9265 10.6522C25.8124 10.9987 25.6199 11.3142 25.3638 11.5741C25.1078 11.834 24.7953 12.0313 24.4505 12.1507L23.303 12.5227C23.2151 12.5544 23.1391 12.6125 23.0854 12.689C23.0316 12.7655 23.0028 12.8567 23.0028 12.9502C23.0028 13.0436 23.0316 13.1348 23.0854 13.2113C23.1391 13.2878 23.2151 13.3459 23.303 13.3777L24.4505 13.7512C24.8002 13.8678 25.1179 14.0643 25.3782 14.3253C25.6386 14.5862 25.8346 14.9042 25.9505 15.2542L26.3225 16.4002C26.3536 16.4888 26.4114 16.5655 26.488 16.6198C26.5645 16.6741 26.6561 16.7033 26.75 16.7033C26.8439 16.7033 26.9355 16.6741 27.012 16.6198C27.0886 16.5655 27.1464 16.4888 27.1775 16.4002L27.551 15.2542C27.6674 14.9052 27.8633 14.5882 28.1234 14.3281C28.3835 14.068 28.7006 13.872 29.0495 13.7557L30.197 13.3837C30.2849 13.3519 30.3609 13.2938 30.4146 13.2173C30.4684 13.1408 30.4972 13.0496 30.4972 12.9562C30.4972 12.8627 30.4684 12.7715 30.4146 12.695C30.3609 12.6185 30.2849 12.5604 30.197 12.5287L30.1745 12.5227ZM23.9825 15.1837C24.0864 15.2246 24.1831 15.2818 24.269 15.3532L17.741 19.1017C17.0591 19.4933 16.2864 19.6994 15.5 19.6994C14.7136 19.6994 13.9409 19.4933 13.259 19.1017L3.5 13.4977V20.4517C3.5 20.6506 3.42098 20.8413 3.28033 20.982C3.13968 21.1226 2.94891 21.2017 2.75 21.2017C2.55109 21.2017 2.36032 21.1226 2.21967 20.982C2.07902 20.8413 2 20.6506 2 20.4517V12.2017C1.99993 12.0664 2.03641 11.9337 2.10559 11.8175C2.17477 11.7013 2.27408 11.606 2.393 11.5417L13.259 5.30315C13.9789 4.88985 14.7992 4.68375 15.629 4.70765C15.5421 4.94393 15.4984 5.19391 15.5 5.44565C15.5 5.89565 15.635 6.31715 15.89 6.67715C16.145 7.03715 16.505 7.32365 16.955 7.47365L18.548 7.99865C18.773 8.07515 18.983 8.19515 19.253 8.43515C19.418 8.60015 19.553 8.79515 19.688 9.14165L20.228 10.7797C20.363 11.1547 20.6045 11.4997 21.0095 11.8162C21.2195 11.9662 21.4445 12.0712 21.6845 12.1312C21.5645 12.3862 21.5045 12.6727 21.5045 12.9577C21.5045 13.3627 21.6245 13.7542 21.8645 14.0857C22.106 14.4157 22.436 14.6557 22.841 14.8057L23.9825 15.1837ZM6.5 21.9517V16.9492L12.512 20.4007C13.4213 20.9228 14.4515 21.1976 15.5 21.1976C16.5485 21.1976 17.5787 20.9228 18.488 20.4007L24.5 16.9492V21.9517C24.5002 22.0502 24.4809 22.1478 24.4433 22.239C24.4058 22.3301 24.3506 22.4129 24.281 22.4827L24.278 22.4842L24.275 22.4872L24.2645 22.4977L24.23 22.5307L24.11 22.6417C23.9636 22.7705 23.813 22.8946 23.6585 23.0137C23.1201 23.4279 22.5476 23.7958 21.947 24.1132C19.9615 25.1652 17.747 25.7109 15.5 25.7017C13.253 25.7109 11.0385 25.1652 9.053 24.1132C8.45293 23.7957 7.88087 23.4279 7.343 23.0137C7.14538 22.8607 6.95421 22.6995 6.77 22.5307L6.7355 22.4977C6.6611 22.4275 6.60183 22.3429 6.56133 22.249C6.52083 22.1551 6.49996 22.0539 6.5 21.9517Z" fill="#FCFCFC"/>
    </g>
    <defs>
        <clipPath id="clip0_59_513">
            <rect width="33" height="33" fill="white" transform="translate(0.5 0.201172)"/>
        </clipPath>
    </defs>
</svg>
